name Walk7.mot
datacolumns 19
datarows 27
range 3.13700000 3.16300000
endheader

                time	   L_ground_force_vx	   L_ground_force_vy	   L_ground_force_vz	   L_ground_force_px	   L_ground_force_py	   L_ground_force_pz	   R_ground_force_vx	   R_ground_force_vy	   R_ground_force_vz	   R_ground_force_px	   R_ground_force_py	   R_ground_force_pz	   L_ground_torque_x	   L_ground_torque_y	   L_ground_torque_z	   R_ground_torque_x	   R_ground_torque_y	   R_ground_torque_z	
          3.13700000	          0.08782332	          0.17644660	         -0.01214714	         -0.00018764	          0.00000000	         -0.00001620	        -19.50444823	        708.31888989	        -32.14819801	          0.38715517	          0.00000000	          0.06697309	          0.00000000	          0.00003431	          0.00000000	          0.00000000	          1.62289699	          0.00000000	
          3.13800000	          0.08371218	          0.16617786	         -0.01193948	         -0.00018675	          0.00000000	         -0.00001622	        -19.17239138	        706.24003682	        -32.11095457	          0.38759904	          0.00000000	          0.06700897	          0.00000000	          0.00002958	          0.00000000	          0.00000000	          1.57259905	          0.00000000	
          3.13900000	          0.07963427	          0.15615427	         -0.01170436	         -0.00018524	          0.00000000	         -0.00001618	        -18.84555202	        704.17705256	        -32.07180719	          0.38804660	          0.00000000	          0.06704509	          0.00000000	          0.00002515	          0.00000000	          0.00000000	          1.52332306	          0.00000000	
          3.14000000	          0.07560215	          0.14639285	         -0.01144501	         -0.00018315	          0.00000000	         -0.00001608	        -18.52390321	        702.13133019	        -32.03074250	          0.38849777	          0.00000000	          0.06708144	          0.00000000	          0.00002100	          0.00000000	          0.00000000	          1.47506091	          0.00000000	
          3.14100000	          0.07162718	          0.13690821	         -0.01116446	         -0.00018055	          0.00000000	         -0.00001593	        -18.20740660	        700.10425227	        -31.98775124	          0.38895246	          0.00000000	          0.06711798	          0.00000000	          0.00001712	          0.00000000	          0.00000000	          1.42780241	          0.00000000	
          3.14200000	          0.06771952	          0.12771264	         -0.01086557	         -0.00017748	          0.00000000	         -0.00001573	        -17.89601241	        698.09719271	        -31.94282822	          0.38941059	          0.00000000	          0.06715471	          0.00000000	          0.00001350	          0.00000000	          0.00000000	          1.38153559	          0.00000000	
          3.14300000	          0.06388821	          0.11881633	         -0.01055104	         -0.00017401	          0.00000000	         -0.00001549	        -17.58965997	        696.11151814	        -31.89597199	          0.38987206	          0.00000000	          0.06719159	          0.00000000	          0.00001015	          0.00000000	          0.00000000	          1.33624701	          0.00000000	
          3.14400000	          0.06014123	          0.11022744	         -0.01022338	         -0.00017018	          0.00000000	         -0.00001521	        -17.28827866	        694.14858840	        -31.84718467	          0.39033678	          0.00000000	          0.06722859	          0.00000000	          0.00000704	          0.00000000	          0.00000000	          1.29192195	          0.00000000	
          3.14500000	          0.05648557	          0.10195228	         -0.00988495	         -0.00016602	          0.00000000	         -0.00001490	        -16.99178902	        692.20975581	        -31.79647180	          0.39080465	          0.00000000	          0.06726569	          0.00000000	          0.00000416	          0.00000000	          0.00000000	          1.24854459	          0.00000000	
          3.14600000	          0.05292729	          0.09399546	         -0.00953794	         -0.00016160	          0.00000000	         -0.00001455	        -16.70010391	        690.29636312	        -31.74384246	          0.39127556	          0.00000000	          0.06730288	          0.00000000	          0.00000152	          0.00000000	          0.00000000	          1.20609808	          0.00000000	
          3.14700000	          0.04947155	          0.08635998	         -0.00918439	         -0.00015694	          0.00000000	         -0.00001418	        -16.41312961	        688.40974051	        -31.68930922	          0.39174942	          0.00000000	          0.06734012	          0.00000000	         -0.00000090	          0.00000000	          0.00000000	          1.16456449	          0.00000000	
          3.14800000	          0.04612269	          0.07904736	         -0.00882620	         -0.00015208	          0.00000000	         -0.00001379	        -16.13076681	        686.55120181	        -31.63288818	          0.39222612	          0.00000000	          0.06737740	          0.00000000	         -0.00000312	          0.00000000	          0.00000000	          1.12392486	          0.00000000	
          3.14900000	          0.04288427	          0.07205779	         -0.00846511	         -0.00014706	          0.00000000	         -0.00001338	        -15.85291144	        684.72204042	        -31.57459870	          0.39270555	          0.00000000	          0.06741470	          0.00000000	         -0.00000513	          0.00000000	          0.00000000	          1.08415911	          0.00000000	
          3.15000000	          0.03975915	          0.06539021	         -0.00810273	         -0.00014191	          0.00000000	         -0.00001296	        -15.57945533	        682.92352529	        -31.51446317	          0.39318760	          0.00000000	          0.06745200	          0.00000000	         -0.00000696	          0.00000000	          0.00000000	          1.04524622	          0.00000000	
          3.15100000	          0.03674950	          0.05904244	         -0.00774055	         -0.00013666	          0.00000000	         -0.00001252	        -15.31028693	        681.15689754	        -31.45250685	          0.39367216	          0.00000000	          0.06748928	          0.00000000	         -0.00000860	          0.00000000	          0.00000000	          1.00716435	          0.00000000	
          3.15200000	          0.03385688	          0.05301128	         -0.00737991	         -0.00013135	          0.00000000	         -0.00001207	        -15.04529217	        679.42336787	        -31.38875786	          0.39415911	          0.00000000	          0.06752653	          0.00000000	         -0.00001007	          0.00000000	          0.00000000	          0.96989108	          0.00000000	
          3.15300000	          0.03108226	          0.04729260	         -0.00702205	         -0.00012599	          0.00000000	         -0.00001161	        -14.78435557	        677.72411459	        -31.32324723	          0.39464834	          0.00000000	          0.06756371	          0.00000000	         -0.00001138	          0.00000000	          0.00000000	          0.93340359	          0.00000000	
          3.15400000	          0.02842610	          0.04188143	         -0.00666807	         -0.00012060	          0.00000000	         -0.00001115	        -14.52736156	        676.06028166	        -31.25600915	          0.39513975	          0.00000000	          0.06760080	          0.00000000	         -0.00001253	          0.00000000	          0.00000000	          0.89767882	          0.00000000	
          3.15500000	          0.02588836	          0.03677209	         -0.00631900	         -0.00011522	          0.00000000	         -0.00001069	        -14.27419570	        674.43297638	        -31.18708133	          0.39563323	          0.00000000	          0.06763778	          0.00000000	         -0.00001354	          0.00000000	          0.00000000	          0.86269365	          0.00000000	
          3.15600000	          0.02346856	          0.03195821	         -0.00597573	         -0.00010987	          0.00000000	         -0.00001022	        -14.02474592	        672.84326674	        -31.11650552	          0.39612868	          0.00000000	          0.06767461	          0.00000000	         -0.00001441	          0.00000000	          0.00000000	          0.82842494	          0.00000000	
          3.15700000	          0.02116582	          0.02743286	         -0.00563907	         -0.00010455	          0.00000000	         -0.00000976	        -13.77890339	        671.29217852	        -31.04432801	          0.39662599	          0.00000000	          0.06771127	          0.00000000	         -0.00001516	          0.00000000	          0.00000000	          0.79484955	          0.00000000	
          3.15800000	          0.01897889	          0.02318861	         -0.00530972	         -0.00009929	          0.00000000	         -0.00000930	        -13.53656312	        669.78069250	        -30.97059996	          0.39712507	          0.00000000	          0.06774773	          0.00000000	         -0.00001578	          0.00000000	          0.00000000	          0.76194414	          0.00000000	
          3.15900000	          0.01690619	          0.01921761	         -0.00498831	         -0.00009410	          0.00000000	         -0.00000884	        -13.29762405	        668.30974164	        -30.89537743	          0.39762581	          0.00000000	          0.06778397	          0.00000000	         -0.00001629	          0.00000000	          0.00000000	          0.72968494	          0.00000000	
          3.16000000	          0.01494583	          0.01551161	         -0.00467538	         -0.00008900	          0.00000000	         -0.00000839	        -13.06198842	        666.88020811	        -30.81872134	          0.39812812	          0.00000000	          0.06781994	          0.00000000	         -0.00001669	          0.00000000	          0.00000000	          0.69804760	          0.00000000	
          3.16100000	          0.01309567	          0.01206210	         -0.00437138	         -0.00008399	          0.00000000	         -0.00000794	        -12.82956056	        665.49292029	        -30.74069747	          0.39863192	          0.00000000	          0.06785564	          0.00000000	         -0.00001700	          0.00000000	          0.00000000	          0.66700712	          0.00000000	
          3.16200000	          0.01135333	          0.00886031	         -0.00407672	         -0.00007910	          0.00000000	         -0.00000751	        -12.60024526	        664.14864982	        -30.66137684	          0.39913710	          0.00000000	          0.06789102	          0.00000000	         -0.00001722	          0.00000000	          0.00000000	          0.63653808	          0.00000000	
          3.16300000	          0.00971624	          0.00589726	         -0.00379170	         -0.00007432	          0.00000000	         -0.00000708	        -12.37394601	        662.84810897	        -30.58083622	          0.39964358	          0.00000000	          0.06792606	          0.00000000	         -0.00001735	          0.00000000	          0.00000000	          0.60661498	          0.00000000	
